<?xml version="1.0" encoding="UTF-8"?>
<svg id="Signal" xmlns="http://www.w3.org/2000/svg" viewBox="0 0 1024 1024">
  <defs>
    <style>
      .cls-1 {
        fill: #fb2122;
        stroke-width: 0px;
      }
    </style>
  </defs>
  <path class="cls-1" d="M655.22,208.12c.15,7.68-.15,7.92-7.8,6.96-6.6-.83-13.2-1.72-19.82-2.35-2.84-.27-3.9-1.27-4.1-4.28-2.12-32.31-20.22-55.13-51.67-64.77-4.63-1.42-5.57-3.31-4.72-7.75,1.22-6.35,1.84-12.84,2.48-19.29.37-3.77,1.85-4.71,5.58-3.78,35.74,8.93,61.14,29.8,74.39,64.5,3.75,9.83,5.64,20.17,5.66,30.77Z"/>
  <path class="cls-1" d="M736.45,222.69c-1.41-3.71.36-6.91.32-10.19-.34-30.54-6.57-59.49-21.69-86.44-12.66-22.57-29.24-41.56-49.85-56.92-22.44-16.72-47.67-27.53-75.13-33.02-1.46-.29-2.91-.85-4.38-.92-2.92-.13-3.14-1.91-2.83-4.12.93-6.56,2.09-13.11,2.74-19.7.32-3.28,1.84-3.92,4.57-3.42,15.74,2.87,31.16,6.98,45.94,13.11,20.23,8.38,39.03,19.35,55.8,33.46,18.98,15.96,34.8,34.65,47.14,56.25,11.82,20.68,19.49,42.82,23.53,66.22,2.52,14.62,3.04,29.41,2.32,44.23-.13,2.7-.72,5.5-4.67,4.78-7.82-1.43-15.86-1.33-23.82-3.32Z"/>
  <path class="cls-1" d="M578.58,61.43c37.88,6.05,69.22,23.39,93.96,51.93,26.23,30.26,37.95,65.84,35.77,106.65-10.08-.63-19.42-1.27-28.47-3.14-1.29-1.94-.75-3.83-.68-5.6.72-17.61-2.56-34.66-10.08-50.36-13.01-27.16-32.71-48.2-60.55-60.95-9.71-4.45-19.62-8.18-30.17-9.95-2.5-.42-3.6-1.53-3.26-3.97,1.09-7.86,2.22-15.71,3.48-24.59Z"/>
</svg>