<?xml version="1.0" encoding="UTF-8"?>
<svg id="WaterDrop" xmlns="http://www.w3.org/2000/svg" viewBox="0 0 1024 1024">
  <defs>
    <style>
      .cls-1 {
        fill: #01a0e5;
        stroke-width: 0px;
      }
    </style>
  </defs>
  <path class="cls-1" d="M343.24,325.94c-.59-2.68.69-4,1.79-5.47,13.73-18.34,27.32-36.79,41.2-55.02,8.81-11.57,18.18-22.72,27.03-34.26,13.14-17.14,26.22-34.33,38.95-51.79,13.7-18.79,26.92-37.9,39.21-57.64,5.65-9.08,11.05-18.32,16.63-27.44.7-1.14.42-3.15,2.66-3.09,2.25.06,2.49,2.01,3.26,3.34,11.44,20.12,23.87,39.61,37.04,58.63,20.41,29.49,42.33,57.84,64.32,86.17,20.67,26.62,41.67,53.01,61.22,80.53,16.26,22.9,32.44,45.8,46.2,70.31,13.7,24.4,25.72,49.58,33.65,76.5,9.07,30.81,13.18,62.28,10.87,94.4-2.5,34.73-10.61,67.98-27.86,98.51-11.79,20.87-26.32,39.5-44.46,55.54-13.03,11.52-26.73,21.86-41.87,30.16-14.18,7.78-28.72,14.73-44.48,19.32-6.15,1.79-6.58-.78-8.02-4.32-11.41-28.1-26.08-54.47-41.94-80.25-23.24-37.8-49.05-73.98-70.32-113.01-6.34-11.64-10.21-24.47-17.34-35.69-13.49-21.22-31.86-34.08-58.03-31.38-14.03,1.45-25.64,8.4-34.42,19.69-1.29,1.66-2.09,3.88-4.58,4.35-2.55-1.07-1.75-3.25-1.62-5.13,1.4-20.73,6.68-40.59,13.49-60.12,5.31-15.22,13.47-29.33,18.54-44.5,6.61-19.76,5.52-39.7-5.76-58.17-11.73-19.19-28.57-29.54-51.29-29.79-1.29-.01-2.58-.24-4.05-.38Z"/>
  <path class="cls-1" d="M438.66,1002.24c-52.25-9.57-99.73-27.52-143.2-55.42-93.15-59.8-153.6-143.66-177.93-251.5-22.05-97.73-8.99-191.89,39.25-280.28,48.01-87.97,119.81-148.83,213.14-184.93.92,2.56-.96,3.75-1.97,4.99-13.91,17.15-27.05,34.89-40.29,52.56-3.54,4.72-9.34,6.82-14.15,9.97-28.99,18.94-53.93,42.35-75.74,69.06-16.3,19.96-30.1,41.66-41.73,64.72-16.15,32.03-26.74,65.85-32.55,101.15-5.58,33.9-5.98,67.95-1.2,102.01,3.59,25.6,9.69,50.59,18.85,74.75,13.08,34.52,30.88,66.34,53.77,95.47,14.75,18.77,31.96,34.89,49.46,50.85,10.09,9.2,21.53,16.54,32.77,24.14,16.22,10.97,33.49,20.17,51.15,28.5,9.99,4.71,20.71,7.88,31.15,11.61,3.59,1.28,7.31,2.22,10.98,3.24,1.96.55,2.9,1.87,3.69,3.68,7.86,18.14,16.22,36.1,20.73,55.48,1.42,6.11,2.38,12.33,3.82,19.94Z"/>
</svg>